HIERARCHY
ROOT Hips
{
	OFFSET 0.000000 0.000000 0.000000
	CHANNELS 6 Xposition Yposition Zposition Zrotation Yrotation Xrotation 
	JOINT LHipJoint
	{
		OFFSET 0.000000 0.000000 0.000000
		CHANNELS 3 Zrotation Yrotation Xrotation
		JOINT LeftUpLeg
		{
			OFFSET 1.363060 -1.794630 0.839290
			CHANNELS 3 Zrotation Yrotation Xrotation
			JOINT LeftLeg
			{
				OFFSET 2.448110 -6.726130 0.000000
				CHANNELS 3 Zrotation Yrotation Xrotation
				JOINT LeftFoot
				{
					OFFSET 2.562200 -7.039590 0.000000
					CHANNELS 3 Zrotation Yrotation Xrotation
					JOINT LeftToeBase
					{
						OFFSET 0.157640 -0.433110 2.322550
						CHANNELS 3 Zrotation Yrotation Xrotation
						End Site
						{
							OFFSET 0.000000 0.000000 0.000000
						}
					}
				}
			}
		}
	}
	JOINT RHipJoint
	{
		OFFSET 0.000000 0.000000 0.000000
		CHANNELS 3 Zrotation Yrotation Xrotation
		JOINT RightUpLeg
		{
			OFFSET -1.305520 -1.794630 0.839290
			CHANNELS 3 Zrotation Yrotation Xrotation
			JOINT RightLeg
			{
				OFFSET -2.542530 -6.985550 0.000000
				CHANNELS 3 Zrotation Yrotation Xrotation
				JOINT RightFoot
				{
					OFFSET -2.568260 -7.056230 0.000000
					CHANNELS 3 Zrotation Yrotation Xrotation
					JOINT RightToeBase
					{
						OFFSET -0.164730 -0.452590 2.363150
						CHANNELS 3 Zrotation Yrotation Xrotation
						End Site
						{
							OFFSET 0.000000 0.000000 0.000000
						}
					}
				}
			}
		}
	}
	JOINT LowerBack
	{
		OFFSET 0.000000 0.000000 0.000000
		CHANNELS 3 Zrotation Yrotation Xrotation
		JOINT Spine
		{
			OFFSET 0.028270 2.035590 -0.193380
			CHANNELS 3 Zrotation Yrotation Xrotation
			JOINT Spine1
			{
				OFFSET 0.056720 2.048850 -0.042750
				CHANNELS 3 Zrotation Yrotation Xrotation
				JOINT Neck
				{
					OFFSET 0.000000 0.000000 0.000000
					CHANNELS 3 Zrotation Yrotation Xrotation
					JOINT Neck1
					{
						OFFSET -0.054170 1.746240 0.172020
						CHANNELS 3 Zrotation Yrotation Xrotation
						JOINT Head
						{
							OFFSET 0.104070 1.761360 -0.123970
							CHANNELS 3 Zrotation Yrotation Xrotation
							End Site
							{
								OFFSET 0.000000 0.000000 0.000000
							}
						}
					}
				}
				JOINT LeftShoulder
				{
					OFFSET 0.000000 0.000000 0.000000
					CHANNELS 3 Zrotation Yrotation Xrotation
					JOINT LeftArm
					{
						OFFSET 3.362410 1.200890 -0.311210
						CHANNELS 3 Zrotation Yrotation Xrotation
						JOINT LeftForeArm
						{
							OFFSET 4.983000 -0.000000 -0.000000
							CHANNELS 3 Zrotation Yrotation Xrotation
							JOINT LeftHand
							{
								OFFSET 3.483560 -0.000000 -0.000000
								CHANNELS 3 Zrotation Yrotation Xrotation
								JOINT LeftFingerBase
								{
									OFFSET 0.000000 0.000000 0.000000
									CHANNELS 3 Zrotation Yrotation Xrotation
									JOINT LeftHandIndex1
									{
										OFFSET 0.715260 -0.000000 -0.000000
										CHANNELS 3 Zrotation Yrotation Xrotation
										End Site
										{
											OFFSET 0.000000 0.000000 0.000000
										}
									}
								}
								JOINT LThumb
								{
									OFFSET 0.000000 0.000000 0.000000
									CHANNELS 3 Zrotation Yrotation Xrotation
									End Site
									{
										OFFSET 0.000000 0.000000 0.000000
									}
								}
							}
						}
					}
				}
				JOINT RightShoulder
				{
					OFFSET 0.000000 0.000000 0.000000
					CHANNELS 3 Zrotation Yrotation Xrotation
					JOINT RightArm
					{
						OFFSET -3.136600 1.374050 -0.404650
						CHANNELS 3 Zrotation Yrotation Xrotation
						JOINT RightForeArm
						{
							OFFSET -5.241900 -0.000000 -0.000000
							CHANNELS 3 Zrotation Yrotation Xrotation
							JOINT RightHand
							{
								OFFSET -3.444170 -0.000000 -0.000000
								CHANNELS 3 Zrotation Yrotation Xrotation
								JOINT RightFingerBase
								{
									OFFSET 0.000000 0.000000 0.000000
									CHANNELS 3 Zrotation Yrotation Xrotation
									JOINT RightHandIndex1
									{
										OFFSET -0.622530 -0.000000 -0.000000
										CHANNELS 3 Zrotation Yrotation Xrotation
										End Site
										{
											OFFSET 0.000000 0.000000 0.000000
										}
									}
								}
								JOINT RThumb
								{
									OFFSET 0.000000 0.000000 0.000000
									CHANNELS 3 Zrotation Yrotation Xrotation
									End Site
									{
										OFFSET 0.000000 0.000000 0.000000
									}
								}
							}
						}
					}
				}
			}
		}
	}
}
MOTION
Frames: 6
Frame Time: 0.008333
0.684700 17.261511 40.519423 -179.039498 2.577259 -169.578817 5.715952 -0.231672 -1.827481 -20.768268 -13.881083 -27.940188 0.967501 12.437030 30.035942 -1.109204 17.329137 5.905978 0.060100 -1.582100 -4.352100 -10.255389 -2.403907 -3.987299 31.116408 -2.661089 4.507637 -8.651607 -15.777728 58.907013 -0.352918 -18.837739 14.577216 -1.117900 6.716600 -18.878500 -0.292924 2.203035 -1.253860 -0.495020 2.648029 -2.993693 -0.717257 1.240385 13.260004 -11.782232 -7.942635 -25.586975 9.880078 -7.617110 11.799796 6.093900 -4.594300 24.565100 9.479552 4.954353 -0.644481 -69.741161 21.456411 63.639282 128.410063 -55.110939 -89.338340 1.527362 -0.869561 15.433987 13.625880 3.002532 0.732000 -7.125000 0.000000 0.000000 -11.943700 33.347300 3.476300 -12.059199 -0.286494 0.648242 81.650716 -10.359534 59.552649 -119.185945 53.899114 -76.955350 0.166755 -1.436136 5.546172 -12.730755 -3.431561 0.457800 7.125000 0.000000 0.000000 10.845000 -31.885400 3.535400 
0.672896 17.146835 40.102518 -179.297095 2.288569 -169.784724 5.748109 -0.133445 -1.844545 -21.748068 -13.589908 -27.207666 1.436061 13.135084 32.323958 -1.476777 18.297154 2.743697 0.070400 -1.711700 -4.709500 -10.168909 -2.334060 -3.943936 30.582235 -2.703627 2.676848 -9.690165 -16.459100 62.482183 -0.189934 -18.921353 12.896794 -1.124500 6.735700 -18.934600 -0.835908 1.859487 -1.013617 -0.579711 2.322326 -2.866968 0.225120 0.987151 12.341769 -17.177221 -10.778925 -21.168042 12.258018 -10.913642 11.346521 9.560300 -6.949100 24.142900 8.959722 5.137406 -0.263590 -70.259013 19.933518 64.383887 127.408177 -55.461967 -88.518192 1.522255 -0.843928 15.197994 13.881985 3.120013 0.771100 -7.125000 0.000000 0.000000 -11.742600 33.459700 3.383000 -12.655826 0.150245 1.154904 82.032227 -11.844276 58.255234 -117.555594 54.513804 -75.048179 0.187610 -1.528680 5.973207 -13.015305 -3.649502 0.499400 7.125000 0.000000 0.000000 10.601400 -32.020500 3.418500 
0.659794 17.076665 39.685504 -179.644967 2.081687 -170.070846 5.700554 -0.120178 -1.840418 -22.565378 -13.237653 -26.369291 1.812352 13.605275 34.030033 -1.682604 18.749579 0.483557 0.092900 -1.965700 -5.410800 -10.138103 -2.346461 -3.790219 30.015944 -2.353812 0.604634 -10.678061 -17.067949 65.752414 -0.123644 -18.338076 11.779129 -1.174100 6.877600 -19.353300 -1.244587 1.860201 -0.702532 -0.471852 2.333338 -2.968336 -0.407340 1.005645 13.080647 -11.602218 -8.187428 -25.380812 10.121740 -8.132609 11.673804 6.054000 -4.691800 24.348700 9.487201 4.807699 -0.572780 -70.982982 17.513149 64.931461 125.784695 -55.714188 -87.166932 1.523459 -0.795301 15.223276 14.440077 3.217360 0.819600 -7.125000 0.000000 0.000000 -11.292400 33.531700 3.228700 -12.171281 -0.131380 0.773139 83.103250 -13.300558 56.485046 -115.438061 55.198946 -72.885285 0.185032 -1.580101 6.295425 -13.200419 -3.665399 0.498200 7.125000 0.000000 0.000000 10.440000 -31.988600 3.373000 
0.652971 16.996208 39.281485 179.931445 2.094678 -170.396017 5.683125 -0.054223 -1.850114 -23.524766 -12.609433 -25.347950 2.185104 14.026472 35.648418 -1.845411 19.168270 -1.564068 0.131300 -2.335400 -6.433600 -10.078897 -2.297594 -3.691356 29.313851 -1.877739 -1.432258 -11.687037 -17.621867 68.993713 -0.010646 -18.064930 10.338786 -1.188500 6.918300 -19.473500 -1.984353 1.754413 -0.206012 -0.468265 2.290603 -2.934030 -0.124817 0.920020 13.021705 -11.455236 -8.348125 -25.471407 10.242694 -8.355567 11.527010 5.984800 -4.685300 24.195400 9.505629 4.721854 -0.529796 -71.889671 15.270630 65.569971 124.403849 -55.997953 -86.001926 1.503835 -0.726842 15.007605 14.844143 3.745535 0.960500 -7.125000 0.000000 0.000000 -11.005000 34.028400 3.009000 -12.220994 -0.050219 0.848342 83.866939 -14.703290 54.707307 -113.335941 55.893674 -70.661098 0.202768 -1.670084 6.545419 -13.617137 -3.997664 0.575200 7.125000 0.000000 0.000000 10.109000 -32.243600 3.200000 
0.645500 16.906221 38.880281 179.498139 2.070223 -170.704410 5.657126 0.001853 -1.854979 -24.462946 -12.020507 -24.232191 2.507832 14.351646 36.993008 -1.992986 19.689500 -3.430767 0.173800 -2.685600 -7.404700 -10.029405 -2.253876 -3.590294 28.577040 -1.436316 -3.475408 -12.697741 -18.120032 72.150086 0.090936 -17.805609 8.967544 -1.206200 6.967700 -19.619600 -2.711911 1.668596 0.257026 -0.446200 2.254319 -2.918413 0.056203 0.843268 13.059392 -10.575780 -8.063611 -26.069024 10.063308 -8.163943 11.439692 5.451100 -4.390000 24.136400 9.605544 4.595499 -0.536197 -72.741752 13.031968 66.186358 123.097434 -56.227745 -84.883708 1.485530 -0.665588 14.882845 15.193899 4.183077 1.083100 -7.125000 0.000000 0.000000 -10.750800 34.436600 2.829100 -12.182408 -0.030358 0.873573 84.644124 -16.096227 52.802493 -111.272745 56.561028 -68.528809 0.213674 -1.743777 6.858282 -13.938638 -4.275537 0.642000 7.125000 0.000000 0.000000 9.852900 -32.458700 3.065000 
0.640302 16.821649 38.485141 178.996760 2.127621 -171.014003 5.627844 0.057064 -1.861794 -25.433322 -11.337985 -23.027814 2.784482 14.594283 38.100713 -2.107267 20.160864 -4.981765 0.229000 -3.079900 -8.501200 -9.986192 -2.200090 -3.484975 27.755326 -0.860078 -5.615322 -13.706118 -18.577831 75.221481 0.192990 -17.578865 7.547908 -1.219400 7.004300 -19.728100 -3.566469 1.612559 0.764279 -0.421019 2.258516 -2.899645 0.292071 0.771856 13.118308 -9.564715 -7.686606 -26.785268 9.829211 -7.875649 11.340645 4.822900 -4.032300 24.085100 9.727894 4.457227 -0.550808 -73.680938 10.750663 66.776018 121.892187 -56.410290 -83.836060 1.462172 -0.601643 14.842864 15.474634 4.693346 1.222400 -7.125000 0.000000 0.000000 -10.557900 34.913400 2.652500 -12.118515 -0.027063 0.899508 85.403152 -17.468258 50.765676 -109.180640 57.220426 -66.428821 0.221865 -1.811812 7.166159 -14.273351 -4.584292 0.721400 7.125000 0.000000 0.000000 9.591900 -32.712000 2.922300 
